<?xml version="1.0" encoding="UTF-8"?>
<svg width="1200pt" height="1200pt" version="1.1" viewBox="0 0 1200 1200" xmlns="http://www.w3.org/2000/svg">
 <g>
  <path d="m650.4 727.2c-26.398 0-52.801-6-79.199-19.199-58.801-28.801-93.602-81.602-91.199-136.8 7.1992-123.6 104.4-205.2 192-205.2 56.398 0 166.8-42 177.6-122.4 4.8008-39.602-18-72-44.398-82.801-9.6016-3.6016-13.199-14.398-9.6016-24 3.6016-9.6016 14.398-13.199 24-9.6016 37.199 15.602 73.199 60 66 121.2-8.3984 60-52.801 97.199-88.801 117.6-38.398 21.602-87.602 36-124.8 36-69.602 0-150 70.801-156 171.6-2.3984 49.199 34.801 85.199 70.801 102 48 22.801 99.602 19.199 132-9.6016 7.1992-6 19.199-6 25.199 1.1992s6 19.199-1.1992 25.199c-25.199 22.801-57.602 34.801-92.402 34.801z"/>
  <path d="m685.2 1105.2h-97.199c-9.6016 0-18-8.3984-18-18v-87.602c0-27.602-22.801-50.398-50.398-50.398-50.398 0-91.199 40.801-91.199 91.199v48c0 9.6016-8.3984 18-18 18h-159.6c-9.6016 0-16.801-7.1992-18-15.602 0-4.8008-51.602-440.4 260.4-492 9.6016-1.1992 19.199 4.8008 20.398 14.398 1.1992 9.6016-4.8008 19.199-14.398 20.398-246 42-237.6 361.2-231.6 436.8h124.8v-30c0-69.602 56.398-127.2 127.2-127.2 48 0 86.398 38.398 86.398 86.398v69.602h70.801c38.398-52.801 273.6-391.2 266.4-655.2-6-180-91.199-236.4-140.4-254.4-9.6016-3.6016-14.398-13.199-10.801-22.801 3.6016-9.6016 13.199-14.398 22.801-10.801 58.801 20.398 159.6 85.199 165.6 286.8 3.6016 126-42 279.6-135.6 456-69.602 130.8-141.6 226.8-141.6 228-7.1953 4.8047-11.996 8.4023-17.996 8.4023z"/>
  <path d="m738 500.4c6-1.1992 9.6016-7.1992 8.3984-13.199-2.3984-12 4.8008-25.199 16.801-27.602 12-2.3984 25.199 4.8008 27.602 16.801 1.1992 6 7.1992 9.6016 13.199 8.3984 6-1.1992 9.6016-7.1992 8.3984-13.199-6-25.199-30-40.801-55.199-34.801s-40.801 30-34.801 55.199c3.6016 6.0039 9.6016 9.6055 15.602 8.4023z"/>
 </g>
</svg>
