<?xml version="1.0" standalone="no"?>
<!DOCTYPE svg PUBLIC "-//W3C//DTD SVG 20010904//EN"
 "http://www.w3.org/TR/2001/REC-SVG-20010904/DTD/svg10.dtd">
<svg version="1.0" xmlns="http://www.w3.org/2000/svg"
 width="700.000000pt" height="700.000000pt" viewBox="0 0 700.000000 700.000000"
 preserveAspectRatio="xMidYMid meet">
<metadata>
Created by potrace 1.14, written by Peter Selinger 2001-2017
</metadata>
<g transform="translate(0.000000,700.000000) scale(0.100000,-0.100000)"
fill="#000000" stroke="none">
<path d="M4662 6255 c-25 -18 -49 -62 -47 -85 1 -8 3 -22 3 -31 3 -26 34 -54
100 -89 217 -115 300 -384 192 -627 -70 -158 -236 -312 -445 -413 -182 -89
-358 -135 -545 -145 -114 -5 -133 -8 -230 -32 -72 -17 -197 -71 -275 -117
-375 -224 -622 -671 -611 -1107 l3 -116 -71 -17 c-301 -69 -562 -218 -778
-444 -159 -167 -281 -361 -382 -610 -37 -90 -98 -272 -111 -331 -2 -9 -15 -65
-29 -126 -14 -60 -28 -126 -31 -145 -3 -19 -8 -42 -10 -50 -2 -8 -6 -35 -9
-60 -9 -74 -26 -212 -31 -255 -10 -74 -13 -649 -4 -743 10 -104 18 -124 56
-149 23 -16 71 -17 509 -18 266 0 496 3 511 7 16 4 38 22 50 39 20 29 21 44
23 209 0 97 3 189 5 203 11 61 14 74 29 114 43 119 141 228 257 285 94 47 143
58 249 55 77 -2 90 -6 137 -36 29 -18 66 -50 83 -71 59 -75 62 -95 64 -428 l2
-302 32 -33 32 -32 308 -2 c365 -2 363 -2 438 99 120 163 504 756 504 779 0 5
5 9 10 9 6 0 10 4 10 10 0 5 17 38 38 72 21 35 52 88 69 118 16 30 50 91 75
135 329 583 653 1362 753 1813 2 9 15 67 29 127 27 117 53 257 62 340 4 28 8
53 10 56 17 30 26 537 11 684 -39 400 -144 720 -320 978 -85 126 -229 268
-352 349 -185 122 -321 171 -373 133z m598 -690 c89 -154 182 -428 206 -605 3
-25 8 -53 9 -62 2 -9 6 -45 10 -80 3 -35 8 -81 10 -103 6 -49 6 -358 1 -400
-3 -16 -7 -66 -11 -110 -19 -226 -109 -616 -216 -938 -38 -115 -75 -223 -83
-240 -7 -18 -40 -97 -71 -177 -32 -80 -73 -176 -90 -215 -39 -84 -68 -148 -70
-155 0 -3 -42 -88 -92 -190 -152 -307 -324 -615 -515 -925 -86 -139 -357 -546
-386 -581 -16 -19 -27 -20 -217 -18 -110 0 -202 2 -205 3 -3 0 -5 108 -6 239
0 213 -3 244 -22 307 -41 135 -135 246 -257 304 -84 40 -145 52 -244 50 -317
-8 -579 -202 -684 -507 -26 -78 -30 -104 -35 -242 -2 -85 -8 -157 -12 -160 -5
-3 -167 -5 -361 -5 l-354 1 -7 39 c-7 45 -3 596 5 635 3 14 8 57 11 95 8 90
14 127 38 260 146 817 553 1334 1171 1490 34 9 69 18 78 21 11 3 31 -20 67
-74 181 -279 528 -464 867 -463 76 1 95 3 175 18 51 9 49 9 123 37 103 39 241
133 264 181 18 37 7 88 -27 118 -43 38 -85 36 -146 -8 -119 -85 -226 -124
-361 -130 -363 -16 -719 223 -799 536 -31 120 -1 333 70 509 101 249 298 459
527 564 99 45 183 64 309 71 91 5 147 12 235 29 117 23 296 86 415 146 304
153 493 365 568 636 24 86 22 71 22 160 l0 77 21 -27 c12 -15 43 -65 69 -111z"/>
<path d="M4405 4449 c-55 -13 -129 -70 -160 -123 -28 -48 -32 -63 -35 -122 -3
-65 -1 -72 27 -99 33 -30 62 -32 94 -6 19 15 22 27 20 65 -5 111 85 184 182
147 32 -12 77 -61 77 -83 0 -24 39 -58 66 -58 28 0 64 36 64 64 -1 33 -38 108
-73 144 -64 67 -166 95 -262 71z"/>
</g>
</svg>
